Coordinates
version=1
nRows=19
nColumns=24
inDegrees=yes

Units are S.I. units (second, meters, Newtons, ...)
Angles are in degrees.

endheader
time	pelvis_tilt	pelvis_list	pelvis_rotation	pelvis_tx	pelvis_ty	pelvis_tz	hip_flexion_r	hip_adduction_r	hip_rotation_r	knee_angle_r	ankle_angle_r	subtalar_angle_r	mtp_angle_r	hip_flexion_l	hip_adduction_l	hip_rotation_l	knee_angle_l	ankle_angle_l	subtalar_angle_l	mtp_angle_l	lumbar_extension	lumbar_bending	lumbar_rotation
      4.65000000	    -16.66214157	      5.04450678	     -3.28878145	     -0.99650078	     -0.01305320	     -0.37699303	     35.69256621	     -5.01655321	     -2.17659289	    -61.83563226	     -2.15902163	    -10.75129180	     27.34611561	     23.07682623	      6.63735832	     -9.66079424	    -19.75948121	      6.10103866	     -0.60714294	      7.93958186	     21.84461195	     -6.45862501	    -12.33652864
      4.65500000	    -16.69432197	      4.72953188	     -3.02779764	     -0.99030508	     -0.01205287	     -0.37752140	     36.21641940	     -4.81998095	     -2.75906695	    -60.92601814	     -1.79942220	    -10.99606472	     26.90008938	     22.31237906	      6.50128648	     -9.44288409	    -19.13432171	      6.10335668	     -0.34534086	      7.89543391	     21.82546435	     -6.26305108	    -12.78739780
      4.66000000	    -16.72468419	      4.42918971	     -2.77995639	     -0.98412777	     -0.01112310	     -0.37799557	     36.72109352	     -4.63500768	     -3.32546177	    -59.95275583	     -1.45530722	    -11.15092721	     26.38993364	     21.55101188	      6.36128877	     -9.26926246	    -18.50843045	      6.09520934	     -0.06743163	      7.85981418	     21.80710527	     -6.08085655	    -13.21485021
      4.66500000	    -16.75664867	      4.14253284	     -2.53168593	     -0.97796878	     -0.01027302	     -0.37846499	     37.20883944	     -4.47240511	     -3.89268633	    -58.91857812	     -1.13676892	    -11.23950025	     25.83131520	     20.79829824	      6.22461681	     -9.12787740	    -17.88560499	      6.08684798	      0.23732278	      7.84540404	     21.79027774	     -5.91195196	    -13.63852288
      4.67000000	    -16.79560723	      3.87690757	     -2.29229178	     -0.97183455	     -0.00950978	     -0.37889435	     37.68816581	     -4.32748823	     -4.44158816	    -57.82500175	     -0.83507236	    -11.24801344	     25.27507458	     20.06051375	      6.09361972	     -9.02353690	    -17.26545401	      6.06978628	      0.56467156	      7.85550898	     21.78199903	     -5.76342955	    -14.04212235
      4.67500000	    -16.84838026	      3.62487843	     -2.05849736	     -0.96570163	     -0.00884083	     -0.37927507	     38.16103305	     -4.19327538	     -4.97753678	    -56.66831423	     -0.55322730	    -11.17249764	     24.79076685	     19.34386693	      5.96180985	     -8.95223472	    -16.65144914	      6.05751569	      0.90710348	      7.88995978	     21.79233394	     -5.63163036	    -14.42515362
      4.68000000	    -16.92755170	      3.40159376	     -1.86124023	     -0.95960099	     -0.00831648	     -0.37961024	     38.66084314	     -4.06310505	     -5.45933539	    -55.46983953	     -0.28133334	    -11.02069112	     24.44269169	     18.65113133	      5.84212878	     -8.87912713	    -16.02056208	      6.06956318	      1.26253874	      7.93654480	     21.82976668	     -5.50748765	    -14.76755922
      4.68500000	    -16.83173701	      3.16038546	     -1.64995963	     -0.95347297	     -0.00759855	     -0.37988223	     38.91412287	     -3.92296057	     -5.98162093	    -54.19105062	     -0.08023562	    -10.81422349	     23.29827752	     17.77376783	      5.69583037	     -8.89185856	    -15.38547346	      5.99822236	      1.65263284	      8.17412858	     21.67997340	     -5.39061945	    -15.13479180
      4.69000000	    -16.97006867	      2.96021122	     -1.37309245	     -0.94744394	     -0.00727183	     -0.38026341	     39.41836793	     -3.87294347	     -6.51802585	    -52.86524780	      0.18376420	    -10.48507707	     23.11917232	     17.20296563	      5.59728096	     -8.86795017	    -14.84344997	      5.97472284	      2.07335746	      8.25321555	     21.77007531	     -5.32473331	    -15.54102751
      4.69500000	    -17.02503992	      2.73672590	     -1.13267202	     -0.94140023	     -0.00689803	     -0.38056654	     39.79421029	     -3.77101412	     -7.02801890	    -51.45217848	      0.38033987	    -10.14495562	     22.92948675	     16.53439517	      5.45766210	     -8.85926625	    -14.28740973	      5.95787704	      2.51153411	      8.36419826	     21.77265005	     -5.22800933	    -15.91937883
      4.70000000	    -17.08972423	      2.53098107	     -0.92579065	     -0.93533137	     -0.00663038	     -0.38087660	     40.16222819	     -3.67084999	     -7.50567761	    -49.98880572	      0.55874305	     -9.73220981	     22.78887060	     15.87811893	      5.32786537	     -8.88483957	    -13.73507636	      5.95391834	      2.91426151	      8.47411638	     21.79513084	     -5.12106118	    -16.26406615
      4.70500000	    -17.20482059	      2.36773850	     -0.76846814	     -0.92928692	     -0.00651185	     -0.38101061	     40.58090108	     -3.54705241	     -7.86857283	    -48.48699865	      0.69963483	     -9.29247702	     22.70890766	     15.26557392	      5.21832143	     -8.84667413	    -13.16371252	      5.94754312	      3.29062269	      8.54592490	     21.87568768	     -5.05549162	    -16.50779783
      4.71000000	    -17.10928225	      2.12325117	     -0.46570352	     -0.92327273	     -0.00616324	     -0.38129834	     40.68446139	     -3.47005396	     -8.46229707	    -46.87669725	      0.80570625	     -8.87576374	     22.54295987	     14.47436061	      5.04288648	     -8.86050881	    -12.66420337	      5.94027612	      3.87336415	      8.81155850	     21.69825932	     -4.97774069	    -16.97239084
      4.71500000	    -17.14368889	      1.93346866	     -0.26557743	     -0.91723349	     -0.00607378	     -0.38151223	     40.93706901	     -3.36765507	     -8.91285240	    -45.24588168	      0.89280487	     -8.34900239	     22.45468814	     13.81986707	      4.90598714	     -8.90800663	    -12.16192821	      5.92109555	      4.27231955	      8.98863518	     21.68107154	     -4.89578634	    -17.29712405
      4.72000000	    -17.16585992	      1.74566146	     -0.06322365	     -0.91119683	     -0.00604098	     -0.38168436	     41.14482457	     -3.25725918	     -9.35197075	    -43.55844260	      0.94152459	     -7.84370651	     22.38879160	     13.16009535	      4.76424098	     -8.92580600	    -11.67407314	      5.91104186	      4.67972270	      9.15648787	     21.64811137	     -4.82052121	    -17.61090046
      4.72500000	    -17.17189188	      1.56213399	      0.12659502	     -0.90514454	     -0.00606735	     -0.38183466	     41.30261038	     -3.13532200	     -9.76976542	    -41.81528174	      0.96729173	     -7.34284538	     22.33625745	     12.49150493	      4.61963401	     -8.92987396	    -11.20539465	      5.91550769	      5.08278777	      9.32104314	     21.60354534	     -4.74333381	    -17.90525360
      4.73000000	    -17.29336412	      1.43212958	      0.24267151	     -0.89910782	     -0.00632013	     -0.38185560	     41.58082738	     -2.98521537	    -10.02851340	    -40.04238531	      0.97671034	     -6.83236215	     22.29754815	     11.95993291	      4.51498396	     -8.92341161	    -10.76746324	      5.90832875	      5.34944034	      9.37422577	     21.68616264	     -4.68777334	    -18.06367650
      4.73500000	    -17.19681360	      1.22085387	      0.49490434	     -0.89302811	     -0.00635682	     -0.38203705	     41.54397050	     -2.88062405	    -10.55677624	    -38.19399588	      0.95296227	     -6.38612303	     22.23879811	     11.21066569	      4.33939709	     -8.92204461	    -10.35084520	      5.94543556	      5.83159956	      9.53990890	     21.51899990	     -4.61302159	    -18.44757709
      4.74000000	    -17.19194907	      1.05519901	      0.64799011	     -0.88693180	     -0.00659327	     -0.38208333	     41.60108410	     -2.72416400	    -10.91400482	    -36.31927163	      0.91431914	     -5.94184556	     22.16801595	     10.56368949	      4.19280805	     -8.93419567	     -9.94989800	      5.96749854	      6.16869402	      9.64602684	     21.46406396	     -4.53902316	    -18.67371953
